<svg xmlns="http://www.w3.org/2000/svg" xmlns:xlink="http://www.w3.org/1999/xlink" viewBox="0 0 770.56 168.44"><defs><style>.cls-1{fill:none;}.cls-2{fill:#3f3f3f;}.cls-3{clip-path:url(#clip-path);}.cls-4{fill:#27c9a2;}.cls-5{fill:#fff;}.cls-6{fill:#1a8e78;}.cls-7{fill:#7deac5;}.cls-8{fill:#2e68bc;}.cls-9{fill:#87b8e8;}.cls-10{fill:#a2e247;}.cls-11{fill:#429969;}.cls-12{fill:#75c999;}</style><clipPath id="clip-path" transform="translate(-0.65 -1.24)"><path class="cls-1" d="M196.59,55.43c0-30.61-26.4-55.43-59-55.43A60.91,60.91,0,0,0,98.29,14.14,60.87,60.87,0,0,0,59,0C26.4,0,0,24.82,0,55.43a52.15,52.15,0,0,0,2.21,15h0s8.06,49.62,96.12,99.23c0,0,80.12-27.37,96.12-99.23h0A52.15,52.15,0,0,0,196.59,55.43Z"/></clipPath></defs><title>Asset 4</title><g id="Layer_2" data-name="Layer 2"><g id="Layer_1-2" data-name="Layer 1"><path class="cls-2" d="M258.72,19.6h7.39L250,57l-.7,2v-.08l-.08.08-1.34-3.14L232.3,19.6h7.55l9.44,21.46Z" transform="translate(-0.65 -1.24)"/><path class="cls-2" d="M304.08,39.34a15.71,15.71,0,0,1-.31,3.46H273.1a12.11,12.11,0,0,0,11.64,9.12,10.81,10.81,0,0,0,6.61-2.05h9.75a18.87,18.87,0,0,1-16.36,9.2,19.48,19.48,0,0,1-19.18-19.73c0-11,8.72-19.82,19.18-19.82A19.54,19.54,0,0,1,304.08,39.34Zm-31-3.54h23.44a12.39,12.39,0,0,0-11.8-9.12A12.19,12.19,0,0,0,273.1,35.8Z" transform="translate(-0.65 -1.24)"/><path class="cls-2" d="M347.87,19.68V58.44a19.75,19.75,0,0,1-7.39,15.49,18.71,18.71,0,0,1-27.6-4.56l4.25-7.31a12.35,12.35,0,0,0,11.63,8.88,12.22,12.22,0,0,0,11.72-9.12V54.43c-.24,0-.08.08-.31.08a17.67,17.67,0,0,1-11.72,4.32,19.18,19.18,0,0,1-11.32-3.77A22,22,0,0,1,312,49.24a20.89,20.89,0,0,1-2.68-10.06,19.32,19.32,0,0,1,19.11-19.5,18.59,18.59,0,0,1,12,4.4v-4.4ZM336.16,48.77a14.12,14.12,0,0,0,3.93-6.05c.08-.55.15-1.26.39-5.19a12.15,12.15,0,0,0-24.22,1.65,13.35,13.35,0,0,0,.63,3.93,12.62,12.62,0,0,0,4,5.9,12.1,12.1,0,0,0,15.26-.24Zm-18.88,13-.15.24v-.24Z" transform="translate(-0.65 -1.24)"/><path class="cls-2" d="M390.79,19.52V58.91h-7.15v-4.4a18.17,18.17,0,0,1-11.95,4.4c-10.38,0-18.87-8.65-18.87-19.57,0-10.7,8.49-19.43,18.87-19.43a18.18,18.18,0,0,1,11.95,4.41v-4.8Zm-7.15,21.54v-3.3a12.35,12.35,0,1,0,0,3.3Z" transform="translate(-0.65 -1.24)"/><path class="cls-2" d="M433.17,58.83H426V36a11.88,11.88,0,0,0-11.32-9c-5,0-9,3.15-10.77,7.86V58.91h-7.16V19.6h7.16v3.77a18.06,18.06,0,0,1,10.77-3.77c9.83,0,17.61,8.26,18.48,18.32Z" transform="translate(-0.65 -1.24)"/><path class="cls-2" d="M498.73,39.34a15.09,15.09,0,0,1-.32,3.46H467.75a12.1,12.1,0,0,0,11.64,9.12,10.81,10.81,0,0,0,6.6-2.05h9.75a18.84,18.84,0,0,1-16.35,9.2A19.49,19.49,0,0,1,460.2,39.34c0-11,8.73-19.82,19.19-19.82A19.54,19.54,0,0,1,498.73,39.34Zm-31-3.54h23.43a12.37,12.37,0,0,0-11.79-9.12A12.17,12.17,0,0,0,467.75,35.8Z" transform="translate(-0.65 -1.24)"/><path class="cls-2" d="M532.14,47.83l3.3,7-.79.32a18.79,18.79,0,0,1-11.16,3.69,19.58,19.58,0,1,1,0-39.15,19.18,19.18,0,0,1,11.16,3.54l.79.39-3.3,6.76-1.1-.78a11.52,11.52,0,0,0-7.55-2.68,12.31,12.31,0,1,0,7.78,21.78Z" transform="translate(-0.65 -1.24)"/><path class="cls-2" d="M576.56,39.26a19.08,19.08,0,1,1-38.14,0,19.34,19.34,0,0,1,19.11-19.58C568,19.68,576.56,28.41,576.56,39.26Zm-6.92,0a12.15,12.15,0,1,0-12.11,12.42A12.29,12.29,0,0,0,569.64,39.26Z" transform="translate(-0.65 -1.24)"/><path class="cls-2" d="M618.85,58.83H611.7V36a11.9,11.9,0,0,0-11.33-9c-5,0-9,3.15-10.77,7.86V58.91h-7.15V19.6h7.15v3.77a18.09,18.09,0,0,1,10.77-3.77c9.83,0,17.62,8.26,18.48,18.32Z" transform="translate(-0.65 -1.24)"/><path class="cls-2" d="M661.93,39.26a19.07,19.07,0,1,1-38.13,0,19.33,19.33,0,0,1,19.1-19.58C653.36,19.68,661.93,28.41,661.93,39.26Zm-6.92,0A12.15,12.15,0,1,0,642.9,51.68,12.29,12.29,0,0,0,655,39.26Z" transform="translate(-0.65 -1.24)"/><path class="cls-2" d="M733.79,58.76h-7.08V36c-1.65-5.34-6-9-11.32-9-5.58,0-10.06,3.78-11.56,9.36V58.76H696.6v-.48L696.83,36c-1.57-5.34-5.89-9-11.24-9a11.68,11.68,0,0,0-11,7.79V58.91h-7.23V19.52h7.23v3.93a17.34,17.34,0,0,1,11-3.93,18,18,0,0,1,14.7,8.26,18.27,18.27,0,0,1,15.1-8.26c6.68,0,12.27,3.93,15.65,9.59a21.31,21.31,0,0,1,2.83,8.81Z" transform="translate(-0.65 -1.24)"/><path class="cls-2" d="M754.77,58.44l-.63,1.5-8,18.79h-7.86l12-27.92L737.08,20.15h7.47l9.59,21.7,9.59-21.7h7.47L758.07,50.74Z" transform="translate(-0.65 -1.24)"/><path class="cls-2" d="M256.36,116.61H242.6v36.64h-2.91V116.61h-6.44v-2.67h6.44v-.16A19.51,19.51,0,0,1,256.36,94.2v3A16.15,16.15,0,0,0,242.6,113.7v.24h13.76Z" transform="translate(-0.65 -1.24)"/><path class="cls-2" d="M299.76,133.36c0,11-8.73,20-19.34,20s-19.42-9-19.42-20,8.72-20,19.42-20S299.76,122.35,299.76,133.36Zm-2.91,0a16.48,16.48,0,1,0-16.43,16.82A16.67,16.67,0,0,0,296.85,133.36Z" transform="translate(-0.65 -1.24)"/><path class="cls-2" d="M321.53,116.61c-7.07.63-12.5,6.76-13.92,13.92v22.72h-2.67V113.78h2.67V123a26.88,26.88,0,0,1,4.09-5,16.79,16.79,0,0,1,9.83-4.17Z" transform="translate(-0.65 -1.24)"/><path class="cls-2" d="M326.72,134.54c-.16-1.26-.08-2,.08-20.68h3V135c.79,8.33,8.42,14.94,15.57,14.94s13.84-5.35,15.49-13.45V113.86h3v39.31h-3v-8.41a36.52,36.52,0,0,1-4.24,4.32,18,18,0,0,1-11.25,4.09,18.27,18.27,0,0,1-15.8-9.51A21.54,21.54,0,0,1,326.72,134.54Z" transform="translate(-0.65 -1.24)"/><path class="cls-2" d="M405.73,130.21v23.12h-3.14V129.82c-2.28-7.55-8.26-12.27-15.34-12.27-6.44,0-12.11,3.93-14.78,10.78l-.08,25h-3.3V114h3.3v8.17a17,17,0,0,1,4.17-4.24,17.29,17.29,0,0,1,10.69-3.7,17.84,17.84,0,0,1,14.79,8.1l2.12,3.07,2.12-3.07a17.86,17.86,0,0,1,14.86-8.1c9.91,0,17.46,8.65,18.32,18.32.08,1.34.08,2.44-.08,20.76h-3.06l.08-21.86c-1-8-8.26-13.92-15.26-13.92S407.78,122.51,405.73,130.21Z" transform="translate(-0.65 -1.24)"/><g class="cls-3"><path class="cls-4" d="M87.52,24.47s46.33-15.86,57.56,44C145.08,68.5,87.09,85.1,87.52,24.47Z" transform="translate(-0.65 -1.24)"/><path class="cls-5" d="M145.08,68.17c-2.09-1-5.08-1.77-7.13-3l-1.13-.68a.53.53,0,0,0,0-.37c-.15-.51-.29-1-.43-1.51-.25-.92-.51-1.86-.84-2.79-.61-1.7-1.34-3.35-2-5l-.72-1.62c-.19-.44-.42-.88-.64-1.3a11.4,11.4,0,0,1-.91-2,.64.64,0,0,0-.77-.41.58.58,0,0,0-.44.71,12.51,12.51,0,0,0,1,2.25c.22.42.43.82.61,1.22l.72,1.64c.73,1.65,1.43,3.2,2,4.86.31.9.57,1.83.82,2.72l.21.74c-2.62-1.6-5.23-3.21-7.47-4.64-.12-.53-.25-1-.36-1.58-.35-1.58-.71-3.21-1.17-4.83-.86-3-1.94-5.86-3-8.67l-1-2.86c-.28-.76-.62-1.53-.94-2.27a21.88,21.88,0,0,1-1.37-3.68.63.63,0,0,0-.74-.45.59.59,0,0,0-.48.68,20.77,20.77,0,0,0,1.43,3.88c.32.73.65,1.48.91,2.21.35,1,.7,1.91,1.06,2.86,1,2.79,2.11,5.67,3,8.6.46,1.58.82,3.2,1.16,4.76l.09.38c-.49-.31-.94-.61-1.37-.9-3.8-2.55-6.79-4.65-9.49-6.68L115.37,49c-.18-1.34-.37-2.73-.66-4.11-.55-2.53-1.26-5-2-7.41-.24-.81-.48-1.62-.71-2.45-.19-.65-.43-1.31-.66-1.95a16.8,16.8,0,0,1-.91-3.13.63.63,0,0,0-.71-.49.59.59,0,0,0-.54.64,17.82,17.82,0,0,0,1,3.35c.24.65.46,1.26.64,1.88.23.82.47,1.64.71,2.45.69,2.34,1.4,4.75,1.92,7.19l0,.14c.28,1.35.47,2.71.65,4l0,.25c-3.12-2.42-6-4.85-9.4-8a.51.51,0,0,0,.06-.32c-.08-.52-.15-1-.22-1.55-.13-.94-.26-1.9-.46-2.86-.37-1.79-.88-3.48-1.37-5.14-.16-.57-.33-1.13-.49-1.7s-.3-.92-.46-1.36a11.68,11.68,0,0,1-.63-2.14.62.62,0,0,0-.7-.49.59.59,0,0,0-.54.65,12.56,12.56,0,0,0,.68,2.34c.16.45.32.87.44,1.29s.33,1.14.49,1.71c.51,1.71,1,3.35,1.35,5.05.19.93.32,1.88.44,2.79,0,.16.05.33.07.49C98,35,93.39,27.79,92.25,26.67c-.42-.41-1-1.31-1.64-1.19a2,2,0,0,1-.21.61c2.54,5.54,6.81,10.48,11.41,14.93a21.19,21.19,0,0,1-7.2-1.37A34.46,34.46,0,0,0,90,38.42a.62.62,0,0,0-.72.47.37.37,0,0,0,0,.21.6.6,0,0,0,.51.46,32.29,32.29,0,0,1,4.47,1.18c2.84.88,5.76,1.79,8.69,1.33,1.27,1.19,2.55,2.35,3.82,3.47,2.13,1.89,4.31,3.78,6.53,5.62-4,.72-8.1-.57-12.1-1.82a49.08,49.08,0,0,0-6.7-1.76.63.63,0,0,0-.72.47.74.74,0,0,0,0,.21.61.61,0,0,0,.51.46,46.1,46.1,0,0,1,6.5,1.71c4.47,1.4,9.07,2.84,13.65,1.67,1,.76,1.9,1.52,2.87,2.25,2.77,2.08,5.66,4,8.61,5.81-4.49,1.25-9.4-.07-14.17-1.35a54.22,54.22,0,0,0-7.7-1.68.61.61,0,0,0-.69.5.6.6,0,0,0,0,.19.62.62,0,0,0,.54.46,51.06,51.06,0,0,1,7.5,1.64c5.27,1.41,10.71,2.86,15.81,1l.52.31c1.59,1,3.6,2.17,5.56,3.21a23.52,23.52,0,0,1-6.72-.63,35,35,0,0,0-4.79-.68.62.62,0,0,0-.66.55.68.68,0,0,0,0,.14.6.6,0,0,0,.58.46,33.3,33.3,0,0,1,4.6.66c2.89.55,5.86,1.1,8.67.36.55.28,1.1.54,1.62.76,1.61.69,2.3.69,4,1.26C142,67.83,143.58,68.67,145.08,68.17Z" transform="translate(-0.65 -1.24)"/><path class="cls-6" d="M99.7,42.36s35.22,2.11,29.54-41C129.24,1.4,85.87,1,99.7,42.36Z" transform="translate(-0.65 -1.24)"/><path class="cls-7" d="M129.31,1.63c-1.2,1.11-3.08,2.16-4.2,3.4l-.63.68a.37.37,0,0,1,.1.24c0,.38,0,.75,0,1.12,0,.67.06,1.37,0,2.07,0,1.27-.17,2.54-.3,3.77,0,.41-.08.82-.13,1.24s-.09.68-.14,1a7.31,7.31,0,0,0-.17,1.57.43.43,0,0,1-.43.43.44.44,0,0,1-.46-.4,9.14,9.14,0,0,1,.17-1.73c.06-.33.11-.64.14-.95s.09-.84.13-1.25c.14-1.27.26-2.47.3-3.71,0-.68,0-1.36,0-2,0-.18,0-.37,0-.55-1.43,1.58-2.86,3.18-4.07,4.58,0,.39.06.77.1,1.15.12,1.14.24,2.33.28,3.52.07,2.19,0,4.38-.1,6.5l-.09,2.15c0,.57-.08,1.16-.13,1.73a14.45,14.45,0,0,0-.12,2.78.41.41,0,0,1-.4.44.46.46,0,0,1-.49-.38,15.86,15.86,0,0,1,.12-2.92c0-.55.11-1.13.13-1.68,0-.72,0-1.44.08-2.16.09-2.1.18-4.27.11-6.43,0-1.17-.16-2.34-.28-3.47,0-.1,0-.19,0-.28-.26.3-.51.59-.73.87-2,2.46-3.61,4.46-5,6.36l.18,1.05c.17.95.35,1.93.46,2.93.2,1.84.26,3.67.32,5.44,0,.6,0,1.21,0,1.81s0,1,0,1.46a11.78,11.78,0,0,0,.07,2.31.41.41,0,0,1-.37.47.44.44,0,0,1-.51-.34,12,12,0,0,1-.08-2.47c0-.48,0-.95,0-1.4l-.06-1.82c0-1.72-.1-3.51-.29-5.27l0-.1c-.1-1-.28-1.95-.45-2.89l0-.17c-1.6,2.24-3,4.44-4.66,7.2a.36.36,0,0,1,.11.21c.06.37.13.74.2,1.11.12.66.24,1.34.32,2,.15,1.29.18,2.54.22,3.77,0,.42,0,.83,0,1.25s0,.69,0,1a8.22,8.22,0,0,0,0,1.58.41.41,0,0,1-.37.47.45.45,0,0,1-.51-.34,8.45,8.45,0,0,1-.06-1.74c0-.33,0-.65,0-1s0-.84,0-1.26c0-1.27-.07-2.48-.21-3.71-.07-.67-.2-1.34-.31-2,0-.11,0-.23-.07-.35C104.55,33.2,103,39,102.44,40c-.19.36-.37,1.08-.85,1.12-.1-.13-.15-.29-.28-.38a34.68,34.68,0,0,1,4.46-12.36,14.55,14.55,0,0,0-4.61,2.3,24.58,24.58,0,0,1-2.91,1.71.47.47,0,0,1-.6-.18A.44.44,0,0,1,97.6,32a.41.41,0,0,1,.25-.41A21.53,21.53,0,0,0,100.64,30c1.75-1.14,3.54-2.32,5.65-2.55.6-1.06,1.22-2.09,1.83-3.1,1-1.69,2.11-3.4,3.22-5.07-2.88.26-5.41,1.91-7.87,3.53a35,35,0,0,1-4.19,2.46.46.46,0,0,1-.6-.19.33.33,0,0,1,0-.14.4.4,0,0,1,.24-.41A31,31,0,0,0,103,22.12c2.74-1.8,5.57-3.65,9-3.72.47-.7,1-1.4,1.46-2.08,1.43-1.94,3-3.78,4.59-5.59-3.35,0-6.41,1.81-9.39,3.59a37.17,37.17,0,0,1-4.89,2.6.47.47,0,0,1-.59-.22.27.27,0,0,1,0-.12.41.41,0,0,1,.26-.42,36.27,36.27,0,0,0,4.77-2.53c3.28-2,6.68-4,10.58-3.69l.27-.32c.88-1,2-2.16,3.09-3.24a16.26,16.26,0,0,0-4.45,1.7,23.89,23.89,0,0,1-3.13,1.36.45.45,0,0,1-.57-.25.29.29,0,0,1,0-.09.41.41,0,0,1,.3-.43,22.54,22.54,0,0,0,3-1.32A13.71,13.71,0,0,1,123,5.47c.32-.29.64-.57.94-.82A28.07,28.07,0,0,1,126.39,3C127.24,2.45,128.17,1.57,129.31,1.63Z" transform="translate(-0.65 -1.24)"/><path class="cls-8" d="M121.06,1.44S99.27,64,194.12,74.85C194.12,74.85,216.3-3.22,121.06,1.44Z" transform="translate(-0.65 -1.24)"/><path class="cls-9" d="M193.6,74.87c-1.78-2.71-3.11-6.62-5.2-9.25l-1.15-1.46a1,1,0,0,1-.58.06c-.8-.17-1.6-.32-2.41-.47-1.44-.28-2.94-.56-4.43-.94-2.72-.68-5.36-1.55-7.91-2.38l-2.6-.85c-.71-.22-1.41-.49-2.09-.76A20.09,20.09,0,0,0,164,57.75a.84.84,0,0,1-.7-1,.92.92,0,0,1,1.08-.63,21,21,0,0,1,3.6,1.16c.68.26,1.32.52,2,.72l2.61.85c2.64.86,5.14,1.68,7.79,2.35,1.43.36,2.9.64,4.32.91l1.17.22c-2.68-3.36-5.39-6.72-7.79-9.6l-2.5-.37c-2.51-.35-5.1-.72-7.67-1.23-4.72-.94-9.35-2.17-13.82-3.37l-4.57-1.21c-1.21-.31-2.44-.71-3.63-1.09a37,37,0,0,0-5.88-1.56.86.86,0,0,1-.75-1,.93.93,0,0,1,1-.69,39.44,39.44,0,0,1,6.19,1.64c1.17.37,2.37.76,3.53,1.06l4.57,1.21c4.45,1.19,9,2.42,13.71,3.35,2.51.5,5.08.86,7.55,1.21l.61.09c-.52-.62-1-1.21-1.51-1.75-4.26-4.87-7.76-8.7-11.13-12.14l-2.34-.19c-2.12-.15-4.31-.31-6.5-.6-4-.55-8-1.33-11.78-2.11l-3.89-.78c-1-.2-2.1-.47-3.12-.74a29.49,29.49,0,0,0-5-1,.87.87,0,0,1-.82-.91.9.9,0,0,1,1-.75,30.74,30.74,0,0,1,5.32,1.06c1,.27,2,.52,3,.72,1.31.25,2.62.52,3.91.78,3.72.75,7.56,1.53,11.42,2.05l.23,0c2.13.29,4.29.44,6.38.59.13,0,.26,0,.4,0-4-4-8-7.59-13.12-11.93a1,1,0,0,1-.5.1c-.82-.08-1.64-.14-2.46-.2-1.47-.1-3-.21-4.52-.42-2.83-.36-5.52-.92-8.17-1.46l-2.7-.54c-.72-.14-1.46-.33-2.17-.52a20.76,20.76,0,0,0-3.39-.68.87.87,0,0,1-.83-.9.9.9,0,0,1,1-.76,22.19,22.19,0,0,1,3.73.74c.71.19,1.38.36,2.05.49l2.71.55c2.73.55,5.33,1.08,8,1.44,1.47.19,3,.3,4.4.4l.78.06C138.28,14.69,126.68,9,124.84,7.56c-.67-.52-2.13-1.2-2-2.09a3.25,3.25,0,0,0,.94-.32c8.88,3,16.94,8.33,24.24,14.13,0-3.15-1.32-6.34-2.65-9.45a38.82,38.82,0,0,1-2.23-6.11.83.83,0,0,1,.68-1,.93.93,0,0,1,.33,0,.88.88,0,0,1,.75.64,38.6,38.6,0,0,0,2.15,5.86c1.59,3.71,3.21,7.52,2.68,11.44,2,1.6,3.87,3.22,5.71,4.83,3.12,2.71,6.24,5.47,9.27,8.29.86-5.32-1.43-10.71-3.67-15.94a57.59,57.59,0,0,1-3.21-8.76.83.83,0,0,1,.69-1,.92.92,0,0,1,.33,0,.88.88,0,0,1,.75.64,55.7,55.7,0,0,0,3.12,8.51c2.5,5.83,5.07,11.85,3.55,18Q168.2,37,170,38.89c3.45,3.53,6.61,7.24,9.7,11,1.66-6-.73-12.47-3.07-18.71a62.07,62.07,0,0,1-3.15-10.1.84.84,0,0,1,.74-1h.28a.86.86,0,0,1,.76.68,60.15,60.15,0,0,0,3.09,9.84c2.57,6.9,5.22,14,2.7,20.91l.53.66c1.65,2.06,3.65,4.64,5.41,7.17.22-2.89-.62-5.91-1.44-8.87a39.15,39.15,0,0,1-1.39-6.32.86.86,0,0,1,.82-.9h.22a.88.88,0,0,1,.77.75,36.76,36.76,0,0,0,1.34,6.06c1,3.79,2.12,7.7,1.15,11.47.47.72.92,1.43,1.3,2.1,1.2,2.1,1.25,3,2.25,5.21C192.86,70.74,194.29,72.84,193.6,74.87Z" transform="translate(-0.65 -1.24)"/><path class="cls-4" d="M170.49,20.24S218.4,34.75,187.18,93.1C187.18,93.1,129.38,72.15,170.49,20.24Z" transform="translate(-0.65 -1.24)"/><path class="cls-5" d="M187.4,92.82c-1-2.17-2.9-4.61-3.71-6.92l-.45-1.28a.59.59,0,0,0,.26-.3l.67-1.56c.41-.94.84-1.91,1.2-2.91.66-1.83,1.18-3.7,1.68-5.51l.51-1.83c.14-.49.25-1,.36-1.51a13.23,13.23,0,0,1,.64-2.31.62.62,0,0,0-.34-.82.65.65,0,0,0-.83.34,14.09,14.09,0,0,0-.71,2.54c-.11.5-.21,1-.34,1.42-.18.62-.35,1.23-.52,1.84-.52,1.87-1,3.63-1.65,5.42-.35,1-.76,1.92-1.16,2.83l-.33.76c-1-3-2.05-5.93-2.89-8.53.26-.52.51-1,.77-1.57.79-1.57,1.6-3.19,2.31-4.87,1.3-3.07,2.38-6.22,3.43-9.27.35-1,.71-2.06,1.07-3.1.29-.82.54-1.69.77-2.53a25.16,25.16,0,0,1,1.38-4,.62.62,0,0,0-.3-.83.65.65,0,0,0-.84.29,25.59,25.59,0,0,0-1.46,4.21c-.23.82-.47,1.67-.75,2.45l-1.08,3.11c-1,3-2.11,6.16-3.4,9.19-.69,1.64-1.49,3.25-2.27,4.8-.06.13-.12.25-.19.38-.17-.56-.34-1.1-.49-1.6-1.34-4.51-2.33-8.13-3.13-11.52l.82-1.4c.75-1.26,1.53-2.57,2.23-3.93,1.26-2.51,2.35-5.08,3.4-7.58.35-.84.71-1.69,1.07-2.53.29-.68.54-1.39.79-2.09a19.17,19.17,0,0,1,1.36-3.25.62.62,0,0,0-.23-.85.64.64,0,0,0-.87.23,21.12,21.12,0,0,0-1.47,3.47c-.24.7-.47,1.36-.75,2l-1.08,2.55c-1,2.42-2.07,4.93-3.29,7.35l-.07.14c-.68,1.32-1.45,2.61-2.19,3.86l-.14.24c-.89-4-1.54-7.8-2.21-12.55a.6.6,0,0,0,.26-.24c.28-.5.57-1,.86-1.47.53-.88,1.07-1.79,1.55-2.74.91-1.76,1.64-3.53,2.36-5.26.25-.58.49-1.17.75-1.75s.37-1,.54-1.45a13.21,13.21,0,0,1,.93-2.22.62.62,0,0,0-.23-.85.64.64,0,0,0-.87.23,14.41,14.41,0,0,0-1,2.43c-.17.48-.33.94-.51,1.37-.26.59-.5,1.18-.75,1.77-.75,1.78-1.46,3.48-2.32,5.17-.47.91-1,1.8-1.51,2.67-.1.15-.19.31-.28.46-.84-7.73.25-16.74.09-18.4-.06-.61.09-1.72-.52-2a2.16,2.16,0,0,1-.58.4c-1.68,6.31-1.57,13.16-.87,19.78-2-1.33-3.44-3.47-4.85-5.56a31.86,31.86,0,0,0-2.94-3.88.64.64,0,0,0-.89,0,.73.73,0,0,0-.14.18.63.63,0,0,0,.1.71,29.76,29.76,0,0,1,2.81,3.73c1.68,2.48,3.42,5,6.09,6.42.21,1.8.47,3.57.73,5.31.45,2.92.93,5.87,1.48,8.8-3.68-1.79-6.13-5.4-8.51-8.92a46.37,46.37,0,0,0-4.2-5.57.65.65,0,0,0-.9,0,1.1,1.1,0,0,0-.14.18.64.64,0,0,0,.1.71,42.35,42.35,0,0,1,4.08,5.42c2.65,3.91,5.39,8,9.85,9.72.25,1.24.51,2.47.8,3.69.82,3.47,1.88,6.85,3,10.22-4.46-1.65-7.52-5.77-10.49-9.76a50.19,50.19,0,0,0-5.06-6.12.65.65,0,0,0-.9,0,.83.83,0,0,0-.12.16.65.65,0,0,0,.13.73,48.82,48.82,0,0,1,4.93,6c3.28,4.41,6.68,9,12,10.5.07.19.13.39.2.58.62,1.82,1.44,4.06,2.31,6.14a21.87,21.87,0,0,1-5-4.62,33.17,33.17,0,0,0-3.4-3.5.65.65,0,0,0-.9.08l-.08.12a.62.62,0,0,0,.16.76,30.79,30.79,0,0,1,3.26,3.36c2,2.22,4,4.51,6.72,5.58.26.57.53,1.13.8,1.63a38.33,38.33,0,0,0,2.35,3.51C185.11,90.62,185.85,92.34,187.4,92.82Z" transform="translate(-0.65 -1.24)"/><path class="cls-4" d="M94.45,34.09S102.16,79,36.06,77.19C36.06,77.19,29.87,21.66,94.45,34.09Z" transform="translate(-0.65 -1.24)"/><path class="cls-5" d="M36.41,77.26c1.53-1.68,2.9-4.23,4.62-5.83l1-.88a.65.65,0,0,0,.39.09l1.7-.09c1,0,2.08-.09,3.14-.2,1.93-.21,3.84-.54,5.68-.87l1.87-.32c.51-.09,1-.2,1.52-.32a13.76,13.76,0,0,1,2.36-.41.59.59,0,0,0,.59-.61.61.61,0,0,0-.66-.54,15.86,15.86,0,0,0-2.6.44c-.5.12-1,.23-1.43.31l-1.88.32c-1.91.34-3.71.65-5.6.85-1,.11-2,.16-3.06.2l-.82,0c2.21-2,4.45-4.07,6.43-5.8h1.75c1.75,0,3.56,0,5.38-.1,3.34-.18,6.64-.58,9.84-1l3.26-.38c.87-.1,1.75-.25,2.61-.4a26.42,26.42,0,0,1,4.2-.5.6.6,0,0,0,.62-.58.61.61,0,0,0-.63-.57,27.21,27.21,0,0,0-4.42.52c-.84.14-1.7.29-2.53.38l-3.27.39c-3.18.38-6.46.77-9.75,1-1.78.1-3.57.1-5.31.1H51l1.23-1c3.47-2.92,6.3-5.19,9-7.22l1.62.1c1.46.1,3,.21,4.51.22,2.81,0,5.59-.14,8.29-.3.92,0,1.83-.11,2.75-.15.74,0,1.49-.13,2.22-.21a21,21,0,0,1,3.52-.2.63.63,0,0,0,.67-.54.59.59,0,0,0-.59-.61,21.34,21.34,0,0,0-3.75.21c-.74.08-1.44.16-2.13.2l-2.77.15c-2.62.16-5.34.32-8,.3h-.16c-1.49,0-3-.12-4.43-.22h-.27C65.83,50.81,69,48.73,73,46.26a.65.65,0,0,0,.33.11l1.71.11c1,.07,2.07.14,3.14.15,2,0,3.88-.09,5.75-.2l1.91-.11c.51,0,1-.09,1.54-.14a13.3,13.3,0,0,1,2.4-.14.62.62,0,0,0,.67-.54.59.59,0,0,0-.59-.61,14.41,14.41,0,0,0-2.63.14c-.51.06-1,.11-1.46.14l-1.92.11c-1.93.11-3.77.22-5.66.2-1,0-2.06-.08-3.06-.15l-.54,0c6.6-3.82,15.19-6.59,16.61-7.39.52-.29,1.6-.62,1.6-1.24a2.06,2.06,0,0,1-.61-.31c-6.42,1.19-12.54,4-18.2,7.31.34-2.16,1.64-4.21,2.9-6.2a29,29,0,0,0,2.23-4,.56.56,0,0,0-.36-.75.54.54,0,0,0-.22,0,.64.64,0,0,0-.59.37,27.34,27.34,0,0,1-2.14,3.8c-1.51,2.38-3.06,4.83-3.15,7.56-1.52.9-3,1.82-4.46,2.74-2.44,1.55-4.89,3.14-7.29,4.77,0-3.72,2.22-7.18,4.35-10.54a40.77,40.77,0,0,0,3.2-5.68.6.6,0,0,0-.58-.78.64.64,0,0,0-.59.37,40.29,40.29,0,0,1-3.11,5.51c-2.38,3.75-4.83,7.61-4.5,12-1,.7-2,1.42-3,2.15-2.77,2.07-5.35,4.3-7.9,6.6-.44-4.3,1.94-8.46,4.25-12.5a44.33,44.33,0,0,0,3.32-6.6.57.57,0,0,0-.4-.73.63.63,0,0,0-.19,0,.62.62,0,0,0-.6.4,43.47,43.47,0,0,1-3.24,6.42c-2.56,4.47-5.18,9.08-4.25,14l-.44.4c-1.37,1.24-3,2.81-4.52,4.37a18.77,18.77,0,0,1,2-5.92,28.4,28.4,0,0,0,1.68-4.19.57.57,0,0,0-.46-.69.39.39,0,0,0-.15,0,.62.62,0,0,0-.61.43,27.61,27.61,0,0,1-1.61,4c-1.16,2.49-2.34,5-2.11,7.73-.41.45-.79.89-1.13,1.31a33.14,33.14,0,0,0-2.13,3.34C37.4,74.5,36.17,75.8,36.41,77.26Z" transform="translate(-0.65 -1.24)"/><path class="cls-10" d="M104.34,40.78S65.89,54.33,56,4.54C56,4.54,104.16-9.73,104.34,40.78Z" transform="translate(-0.65 -1.24)"/><path class="cls-5" d="M56,4.81c1.75.85,4.25,1.43,6,2.45l1,.56a.47.47,0,0,0,0,.31c.14.42.26.84.38,1.25.22.76.44,1.55.73,2.32.51,1.41,1.14,2.78,1.75,4.11.2.44.41.89.61,1.34s.36.73.54,1.08a8.84,8.84,0,0,1,.78,1.7.53.53,0,0,0,.64.33.49.49,0,0,0,.37-.59,10.42,10.42,0,0,0-.85-1.86c-.19-.35-.37-.69-.52-1s-.41-.91-.61-1.36c-.63-1.36-1.22-2.66-1.72-4-.28-.74-.5-1.51-.71-2.25l-.18-.61c2.19,1.3,4.38,2.63,6.26,3.8.1.44.21.88.31,1.32.3,1.31.62,2.66,1,4,.74,2.46,1.67,4.87,2.56,7.2.3.79.61,1.58.9,2.37.24.63.53,1.27.81,1.89a18.38,18.38,0,0,1,1.17,3.05.52.52,0,0,0,.62.37.5.5,0,0,0,.4-.57,18.74,18.74,0,0,0-1.23-3.22c-.27-.6-.55-1.23-.78-1.83l-.9-2.38c-.89-2.31-1.81-4.71-2.54-7.14-.4-1.31-.71-2.65-1-3.95,0-.11,0-.22-.07-.32l1.14.74c3.19,2.1,5.7,3.82,8,5.49.07.41.13.82.19,1.23.17,1.12.34,2.27.59,3.42.48,2.1,1.1,4.16,1.7,6.16.21.67.42,1.35.62,2s.37,1.09.57,1.62a14.56,14.56,0,0,1,.79,2.6.51.51,0,0,0,.59.41.49.49,0,0,0,.44-.55,14.26,14.26,0,0,0-.84-2.77c-.2-.54-.39-1-.54-1.56-.21-.69-.41-1.37-.62-2-.59-1.94-1.2-3.95-1.66-6l0-.12c-.25-1.12-.42-2.26-.58-3.36l0-.21c2.62,2,5,4,7.9,6.55a.41.41,0,0,0,0,.27c.07.43.14.86.2,1.29.12.78.23,1.58.41,2.38.32,1.48.76,2.89,1.18,4.27.14.47.29.94.43,1.41s.25.76.39,1.13a9.14,9.14,0,0,1,.54,1.77.52.52,0,0,0,.59.41.48.48,0,0,0,.44-.54,10.17,10.17,0,0,0-.58-1.95c-.14-.37-.27-.72-.38-1.07l-.42-1.42c-.44-1.42-.86-2.78-1.17-4.2-.17-.77-.28-1.56-.39-2.32,0-.13,0-.27-.07-.41,4.53,4.28,8.47,10.23,9.43,11.16.35.34.83,1.08,1.38,1a1.4,1.4,0,0,1,.17-.51c-2.17-4.6-5.77-8.68-9.64-12.36a17.73,17.73,0,0,1,6,1.1,28.17,28.17,0,0,0,3.9,1,.52.52,0,0,0,.6-.4.49.49,0,0,0,0-.17.53.53,0,0,0-.43-.38,27.66,27.66,0,0,1-3.74-.94c-2.37-.72-4.81-1.45-7.25-1.05-1.06-1-2.14-1.94-3.21-2.86-1.79-1.56-3.62-3.12-5.49-4.63,3.3-.63,6.75.41,10.1,1.42a39.45,39.45,0,0,0,5.59,1.41.52.52,0,0,0,.6-.39A.55.55,0,0,0,99,21a.51.51,0,0,0-.42-.37,40.46,40.46,0,0,1-5.43-1.38C89.36,18.12,85.51,17,81.71,18c-.79-.63-1.6-1.25-2.41-1.85-2.32-1.71-4.75-3.26-7.22-4.77,3.73-1.08,7.83,0,11.81,1a44.34,44.34,0,0,0,6.43,1.34.52.52,0,0,0,.58-.42.76.76,0,0,0,0-.15.5.5,0,0,0-.45-.38,43.36,43.36,0,0,1-6.27-1.31c-4.4-1.14-8.94-2.31-13.17-.75l-.43-.26c-1.34-.81-3-1.78-4.66-2.63a19.49,19.49,0,0,1,5.59.48,29.42,29.42,0,0,0,4,.52A.5.5,0,0,0,76,8.33a.2.2,0,0,0,0-.11.49.49,0,0,0-.49-.38,27.7,27.7,0,0,1-3.84-.52c-2.41-.43-4.89-.87-7.22-.24-.46-.22-.92-.43-1.35-.61a33.15,33.15,0,0,0-3.34-1C58.62,5.07,57.26,4.38,56,4.81Z" transform="translate(-0.65 -1.24)"/><path class="cls-11" d="M75.12,2.43S89.74,65.27,2.8,68.8C2.8,68.8-10.9-9.27,75.12,2.43Z" transform="translate(-0.65 -1.24)"/><path class="cls-12" d="M3.26,68.86c1.84-2.52,3.38-6.25,5.48-8.67l1.17-1.34a.79.79,0,0,0,.52.1l2.22-.28c1.34-.16,2.72-.33,4.1-.58,2.52-.47,5-1.12,7.38-1.74l2.42-.63c.66-.17,1.32-.38,2-.59a16.89,16.89,0,0,1,3.06-.8.82.82,0,1,0-.21-1.62,18,18,0,0,0-3.36.87c-.64.2-1.25.4-1.85.56-.82.2-1.63.42-2.44.63-2.47.65-4.8,1.26-7.26,1.71-1.33.25-2.68.41-4,.57l-1.08.13c2.7-3.09,5.44-6.17,7.85-8.81l2.3-.17c2.3-.16,4.68-.32,7.06-.63C33,47,37.25,46.14,41.41,45.3l4.24-.83c1.13-.22,2.27-.52,3.38-.8a32.29,32.29,0,0,1,5.47-1.09.82.82,0,0,0,.75-.88.83.83,0,0,0-.88-.75,34.31,34.31,0,0,0-5.76,1.13c-1.08.29-2.2.57-3.28.78l-4.25.84c-4.13.83-8.4,1.69-12.71,2.25-2.32.3-4.67.46-6.95.62l-.56,0L22.37,45c4.27-4.45,7.76-7.93,11.11-11h2.13c1.93,0,3.94,0,5.94-.1,3.69-.24,7.33-.71,10.86-1.18l3.6-.47c1-.12,1.94-.31,2.89-.5a26.28,26.28,0,0,1,4.6-.61.82.82,0,1,0,0-1.63,27,27,0,0,0-4.91.64c-1,.19-1.87.36-2.78.48l-3.61.47c-3.43.46-7,.93-10.53,1.15l-.2,0c-2,.11-3.93.1-5.84.09h-.36c4-3.59,7.9-6.83,12.88-10.69a.84.84,0,0,0,.44.13c.76,0,1.5,0,2.25,0,1.34,0,2.74,0,4.14-.08,2.59-.14,5.08-.49,7.53-.81L65,20.54c.67-.08,1.35-.22,2-.34a17,17,0,0,1,3.14-.42A.83.83,0,0,0,71,19a.81.81,0,0,0-.83-.81,19,19,0,0,0-3.45.44c-.66.13-1.28.25-1.9.33-.84.1-1.67.22-2.5.33-2.53.34-4.93.66-7.41.8-1.35.08-2.71.08-4,.07h-.71c8.28-6,19.27-10.71,21.06-12,.65-.47,2-1,2-1.91a2.64,2.64,0,0,1-.83-.38c-8.31,2.27-16,6.88-23.15,12,.22-3.08,1.72-6.11,3.18-9A41.56,41.56,0,0,0,54.89,3a.82.82,0,0,0-.55-1,.92.92,0,0,0-.29,0,.83.83,0,0,0-.74.58A39.29,39.29,0,0,1,50.88,8.1c-1.74,3.51-3.53,7.12-3.37,11-1.91,1.42-3.77,2.86-5.58,4.3-3,2.42-6.11,4.88-9.09,7.42C32.5,25.54,35,20.44,37.48,15.49a59.58,59.58,0,0,0,3.64-8.34.82.82,0,0,0-.55-1,.74.74,0,0,0-.29,0,.84.84,0,0,0-.74.57A57.48,57.48,0,0,1,36,14.76c-2.75,5.52-5.58,11.22-4.7,17.35q-1.87,1.64-3.69,3.31C24.2,38.61,21,42,17.91,45.48c-1-6,1.7-12.15,4.33-18.08a64.91,64.91,0,0,0,3.69-9.65.82.82,0,0,0-.59-1l-.26,0a.83.83,0,0,0-.75.62,63.11,63.11,0,0,1-3.6,9.4C17.82,33.3,14.83,40.07,16.56,47l-.54.6c-1.67,1.89-3.69,4.27-5.5,6.61,0-2.84,1.05-5.74,2-8.57a41.06,41.06,0,0,0,1.78-6.08.82.82,0,0,0-.66-1h-.2a.82.82,0,0,0-.76.67A40.6,40.6,0,0,1,11,45.11c-1.27,3.64-2.57,7.38-2,11.14-.48.68-.94,1.34-1.34,2a46.29,46.29,0,0,0-2.47,4.93C4.28,64.87,2.81,66.82,3.26,68.86Z" transform="translate(-0.65 -1.24)"/><path class="cls-10" d="M30.26,29.65S68.08,58.91,16.89,97.37C16.89,97.37-27.38,59.15,30.26,29.65Z" transform="translate(-0.65 -1.24)"/><path class="cls-5" d="M17.2,97.21c0-2.19-.83-4.94-.66-7.19l.09-1.24a.69.69,0,0,0,.36-.16c.4-.37.81-.73,1.22-1.09.74-.65,1.5-1.33,2.22-2,1.32-1.32,2.52-2.72,3.68-4.07L25.3,80c.32-.37.62-.76.91-1.15a12.81,12.81,0,0,1,1.49-1.73.54.54,0,0,0,0-.82.67.67,0,0,0-.88,0,13.3,13.3,0,0,0-1.64,1.9c-.3.39-.57.75-.87,1.09l-1.19,1.38c-1.2,1.4-2.33,2.72-3.62,4-.69.7-1.44,1.36-2.17,2l-.59.53c.22-2.88.46-5.76.71-8.26l1.32-1.07c1.33-1.05,2.7-2.14,4-3.31,2.39-2.15,4.6-4.44,6.75-6.65q1.08-1.12,2.19-2.25c.58-.6,1.14-1.25,1.68-1.87a22.86,22.86,0,0,1,2.82-2.91.54.54,0,0,0,.06-.81.68.68,0,0,0-.89-.05,24.43,24.43,0,0,0-3,3.05c-.53.61-1.08,1.25-1.64,1.82l-2.19,2.25c-2.13,2.2-4.33,4.48-6.69,6.6C20.63,74.91,19.27,76,18,77l-.32.26q.09-.81.18-1.53c.55-4.3,1.07-7.72,1.66-10.88l1.3-.9c1.18-.81,2.4-1.64,3.56-2.55,2.14-1.68,4.13-3.47,6.06-5.22l2-1.78c.52-.47,1-1,1.52-1.48a18.61,18.61,0,0,1,2.52-2.28.55.55,0,0,0,.12-.8.65.65,0,0,0-.88-.11A18.8,18.8,0,0,0,33,52.18c-.5.5-1,1-1.47,1.43l-2,1.78c-1.88,1.7-3.81,3.45-5.87,5.07l-.12.09c-1.13.89-2.34,1.71-3.5,2.51l-.22.15c.75-3.69,1.66-7.16,2.9-11.43a.65.65,0,0,0,.33-.11l1.37-1c.82-.56,1.66-1.14,2.48-1.77,1.5-1.18,2.86-2.41,4.2-3.62l1.36-1.23c.37-.33.72-.69,1.06-1a12.35,12.35,0,0,1,1.72-1.55.56.56,0,0,0,.12-.81.67.67,0,0,0-.88-.11,14,14,0,0,0-1.89,1.7c-.34.35-.67.68-1,1s-.92.82-1.37,1.24c-1.38,1.25-2.69,2.44-4.14,3.56-.78.61-1.61,1.18-2.41,1.73l-.43.3C25.49,43.24,30,36,30.5,34.52c.19-.54.77-1.43.33-1.9a2.15,2.15,0,0,1-.68.13c-4,4.76-6.58,10.61-8.54,16.48a17.14,17.14,0,0,1-2.23-6.43,27.63,27.63,0,0,0-1.14-4.34.64.64,0,0,0-.8-.34.63.63,0,0,0-.2.1.55.55,0,0,0-.18.63A26.84,26.84,0,0,1,18.15,43c.55,2.71,1.13,5.49,3,7.61q-.75,2.4-1.41,4.76c-.74,2.64-1.46,5.31-2.1,8C15,60.55,14.2,56.61,13.41,52.79a39,39,0,0,0-1.63-6.21.64.64,0,0,0-.8-.35.63.63,0,0,0-.2.1.55.55,0,0,0-.18.63,37.5,37.5,0,0,1,1.58,6c.87,4.26,1.78,8.66,5.13,11.74-.25,1.14-.5,2.28-.71,3.41-.61,3.24-1,6.48-1.27,9.75-3.39-3-4.56-7.56-5.7-12a42.49,42.49,0,0,0-2.2-7,.64.64,0,0,0-.81-.31.69.69,0,0,0-.17.1.54.54,0,0,0-.17.66,42.05,42.05,0,0,1,2.13,6.8c1.26,4.91,2.56,10,6.8,13.16,0,.19,0,.38-.05.57-.14,1.76-.28,4-.3,6a19.47,19.47,0,0,1-2.71-5.68,27.41,27.41,0,0,0-1.71-4.17.66.66,0,0,0-.85-.26l-.12.08a.54.54,0,0,0-.15.7,26.08,26.08,0,0,1,1.64,4c.91,2.58,1.84,5.23,3.92,7.11,0,.58,0,1.15.08,1.67a34.28,34.28,0,0,0,.77,3.81C16,94.53,16,96.25,17.2,97.21Z" transform="translate(-0.65 -1.24)"/><path class="cls-6" d="M28.91,47.85S88,64.73,49.27,132C49.27,132-22,107.63,28.91,47.85Z" transform="translate(-0.65 -1.24)"/><path class="cls-7" d="M49.54,131.65c-1.21-2.51-3.57-5.33-4.56-8l-.55-1.48a.8.8,0,0,0,.33-.35c.27-.6.55-1.2.83-1.8.51-1.08,1-2.2,1.49-3.36.82-2.11,1.46-4.26,2.09-6.34.21-.7.42-1.41.64-2.11s.31-1.17.45-1.74a13.89,13.89,0,0,1,.8-2.67.69.69,0,0,0-.42-.94.82.82,0,0,0-1,.38,15.44,15.44,0,0,0-.89,2.93c-.13.57-.26,1.12-.42,1.64-.22.71-.43,1.42-.65,2.13-.64,2.15-1.25,4.18-2,6.24-.43,1.11-1,2.21-1.45,3.27l-.41.87c-1.26-3.41-2.51-6.85-3.54-9.85l1-1.81c1-1.81,2-3.68,2.87-5.61,1.62-3.55,3-7.18,4.27-10.69.44-1.19.88-2.38,1.33-3.58.36-1,.67-1.94,1-2.91a26.48,26.48,0,0,1,1.72-4.61.69.69,0,0,0-.37-1,.81.81,0,0,0-1,.33,27.85,27.85,0,0,0-1.82,4.85c-.29,1-.59,1.92-.93,2.83-.46,1.2-.9,2.39-1.34,3.58-1.29,3.49-2.63,7.1-4.23,10.6-.87,1.89-1.86,3.74-2.82,5.53l-.24.44-.6-1.85c-1.64-5.21-2.85-9.39-3.83-13.3l1-1.61c.93-1.46,1.9-3,2.76-4.54,1.58-2.89,2.93-5.85,4.23-8.73.44-1,.88-2,1.34-2.92.36-.78.67-1.61,1-2.4a21.26,21.26,0,0,1,1.7-3.75.69.69,0,0,0-.29-1,.83.83,0,0,0-1.07.26,21.7,21.7,0,0,0-1.82,4c-.31.81-.6,1.58-.94,2.31-.45,1-.9,2-1.34,2.94-1.26,2.8-2.57,5.69-4.09,8.47l-.09.16c-.84,1.53-1.79,3-2.71,4.45l-.18.28c-1.08-4.6-1.87-9-2.69-14.49a.71.71,0,0,0,.32-.27c.35-.58.72-1.14,1.08-1.7.65-1,1.32-2.07,1.92-3.16,1.12-2,2-4.06,2.93-6.06.31-.67.61-1.34.93-2s.47-1.12.68-1.67a13.93,13.93,0,0,1,1.16-2.56.7.7,0,0,0-.29-1,.82.82,0,0,0-1.07.26,15.36,15.36,0,0,0-1.29,2.8c-.21.56-.41,1.08-.64,1.59-.31.68-.62,1.35-.92,2-.94,2.06-1.82,4-2.89,6-.58,1-1.24,2.08-1.88,3.07-.11.18-.22.36-.34.54-1-8.93.36-19.32.17-21.23-.07-.7.13-2-.63-2.34a2.58,2.58,0,0,1-.72.46c-2.1,7.28-2,15.18-1.14,22.83-2.45-1.54-4.23-4-6-6.43a37.12,37.12,0,0,0-3.61-4.49.84.84,0,0,0-1.11,0,.79.79,0,0,0-.17.2.69.69,0,0,0,.12.81A35.17,35.17,0,0,1,22,68.68c2.07,2.87,4.21,5.83,7.5,7.43.26,2.07.56,4.12.89,6.13.54,3.37,1.12,6.78,1.79,10.16-4.53-2.08-7.55-6.26-10.48-10.32a52,52,0,0,0-5.17-6.44.83.83,0,0,0-1.11,0,.68.68,0,0,0-.17.21.68.68,0,0,0,.13.81,51.55,51.55,0,0,1,5,6.27C23.64,87.4,27,92.07,32.51,94.13c.3,1.43.62,2.85,1,4.26,1,4,2.3,7.91,3.69,11.81-5.5-1.93-9.27-6.68-12.92-11.3A58.4,58.4,0,0,0,18,91.82a.84.84,0,0,0-1.11,0,.62.62,0,0,0-.14.19.66.66,0,0,0,.15.83A57.66,57.66,0,0,1,23,99.74c4,5.11,8.22,10.38,14.8,12.16l.24.67c.77,2.1,1.77,4.69,2.84,7.09a26.41,26.41,0,0,1-6.12-5.34,39,39,0,0,0-4.19-4,.84.84,0,0,0-1.11.08l-.1.15a.68.68,0,0,0,.19.87,35.54,35.54,0,0,1,4,3.89c2.41,2.57,4.89,5.21,8.29,6.46.32.66.65,1.3,1,1.88a43,43,0,0,0,2.9,4.06C46.72,129.11,47.63,131.09,49.54,131.65Z" transform="translate(-0.65 -1.24)"/><path class="cls-8" d="M110,46.29S136.28,107.37,42.42,124C42.42,124,14.68,47.42,110,46.29Z" transform="translate(-0.65 -1.24)"/><path class="cls-9" d="M42.94,124c1.58-2.82,2.64-6.81,4.52-9.56l1-1.52a1,1,0,0,0,.58,0l2.37-.61c1.43-.37,2.9-.74,4.36-1.2,2.66-.85,5.23-1.88,7.72-2.87l2.53-1c.69-.27,1.37-.59,2-.89a19.42,19.42,0,0,1,3.19-1.27.83.83,0,0,0,.63-1,.94.94,0,0,0-1.12-.57,21.52,21.52,0,0,0-3.51,1.38c-.67.31-1.29.6-1.92.84l-2.55,1c-2.57,1-5,2-7.59,2.81-1.41.45-2.85.82-4.25,1.17l-1.15.3c2.43-3.52,4.89-7,7.08-10,.82-.18,1.65-.36,2.47-.52,2.47-.51,5-1,7.56-1.7,4.64-1.22,9.17-2.74,13.55-4.2L85,93c1.19-.39,2.39-.86,3.54-1.32a37.73,37.73,0,0,1,5.76-1.91.84.84,0,0,0,.68-1,.92.92,0,0,0-1.09-.62,39.82,39.82,0,0,0-6.06,2c-1.13.45-2.3.91-3.44,1.28L79.87,93c-4.35,1.45-8.85,3-13.43,4.16-2.48.66-5,1.17-7.45,1.67l-.6.13,1.37-1.84C63.67,92,66.89,87.93,70,84.29L72.32,84c2.11-.29,4.28-.58,6.44-1,4-.79,7.85-1.81,11.61-2.82,1.27-.34,2.54-.68,3.83-1,1-.27,2-.61,3-.93a29.38,29.38,0,0,1,4.9-1.31.85.85,0,0,0,.75-1,.89.89,0,0,0-1-.69,30.71,30.71,0,0,0-5.23,1.38c-1,.33-2,.65-2.94.9l-3.84,1c-3.65,1-7.43,2-11.25,2.75l-.22,0c-2.11.41-4.25.7-6.33,1l-.39.05c3.72-4.22,7.46-8.06,12.23-12.7a1,1,0,0,0,.51.06l2.44-.34c1.46-.19,3-.4,4.48-.69,2.79-.54,5.44-1.26,8-2L102,66c.72-.18,1.44-.42,2.13-.65a21.38,21.38,0,0,1,3.35-.89.85.85,0,0,0,.75-1,.9.9,0,0,0-1-.69,21.54,21.54,0,0,0-3.67,1c-.7.22-1.36.44-2,.61l-2.66.71c-2.69.72-5.25,1.4-7.92,1.92-1.45.28-2.93.48-4.37.68l-.77.1c8-7.3,19.17-13.68,20.9-15.22.64-.57,2-1.34,1.84-2.21a3.44,3.44,0,0,1-1-.26c-8.65,3.53-16.3,9.34-23.17,15.57-.27-3.14.86-6.41,2-9.59a39.7,39.7,0,0,0,1.78-6.23A.84.84,0,0,0,87.4,49a.92.92,0,0,0-1,.7,37.86,37.86,0,0,1-1.72,6c-1.31,3.8-2.66,7.7-1.85,11.58-1.84,1.71-3.62,3.45-5.35,5.17-2.91,2.89-5.83,5.83-8.65,8.83-1.25-5.25.66-10.77,2.51-16.13a56.2,56.2,0,0,0,2.58-8.93.85.85,0,0,0-.76-.95.91.91,0,0,0-.33,0,.85.85,0,0,0-.7.69,55.21,55.21,0,0,1-2.51,8.68c-2.07,6-4.21,12.13-2.24,18.17C66.17,84,65,85.32,63.89,86.63c-3.2,3.73-6.08,7.63-8.89,11.6-2.1-5.93-.16-12.49,1.72-18.86A63.27,63.27,0,0,0,59.14,69.1a.85.85,0,0,0-.81-.91.87.87,0,0,0-.28,0,.86.86,0,0,0-.71.73,60.56,60.56,0,0,1-2.37,10c-2.08,7-4.21,14.3-1.19,21l-.49.68c-1.5,2.16-3.31,4.85-4.88,7.48-.43-2.86.19-5.93.8-8.93a39.88,39.88,0,0,0,.93-6.39.86.86,0,0,0-.88-.85A.79.79,0,0,0,49,92a.85.85,0,0,0-.71.8,38,38,0,0,1-.9,6.12c-.78,3.86-1.57,7.82-.34,11.52-.41.75-.8,1.49-1.13,2.18-1.05,2.16-1,3.08-1.88,5.33C43.39,119.8,42.11,122,42.94,124Z" transform="translate(-0.65 -1.24)"/><path class="cls-10" d="M167.17,32.61S99.64,56.39,147.05,140.86C147.05,140.86,228.34,107.08,167.17,32.61Z" transform="translate(-0.65 -1.24)"/><path class="cls-5" d="M146.72,140.45c1.29-3.25,3.9-6.94,4.94-10.38.2-.63.39-1.27.58-1.91a.86.86,0,0,1-.39-.43c-.34-.76-.69-1.52-1-2.27-.63-1.36-1.28-2.77-1.84-4.23-1-2.67-1.87-5.4-2.67-8-.27-.89-.55-1.78-.83-2.68-.22-.72-.41-1.47-.58-2.2a19.12,19.12,0,0,0-1-3.38.92.92,0,0,1,.45-1.22.9.9,0,0,1,1.2.45,21.35,21.35,0,0,1,1.14,3.7c.18.74.35,1.43.56,2.09.28.9.55,1.8.83,2.69.83,2.73,1.61,5.3,2.62,7.9.54,1.41,1.18,2.79,1.8,4.12l.51,1.11c1.32-4.41,2.62-8.86,3.68-12.72-.39-.76-.78-1.53-1.18-2.29-1.19-2.27-2.42-4.62-3.52-7.06-2-4.46-3.71-9-5.35-13.5q-.84-2.25-1.69-4.51c-.45-1.2-.84-2.46-1.22-3.69a36.82,36.82,0,0,0-2.17-5.83.93.93,0,0,1,.38-1.24.92.92,0,0,1,1.23.39,38.3,38.3,0,0,1,2.29,6.13c.36,1.2.75,2.43,1.18,3.58q.85,2.26,1.69,4.52c1.63,4.42,3.32,9,5.31,13.39,1.07,2.38,2.29,4.71,3.47,7,.1.19.19.38.29.56.22-.84.43-1.64.62-2.39,1.68-6.71,2.91-12.1,3.89-17.13-.41-.68-.82-1.36-1.24-2-1.14-1.82-2.31-3.71-3.37-5.69-1.93-3.64-3.61-7.37-5.23-11-.55-1.23-1.09-2.46-1.65-3.69-.45-1-.85-2-1.23-3A28.44,28.44,0,0,0,147,60.79a.94.94,0,0,1,.3-1.27.88.88,0,0,1,1.24.3,30.27,30.27,0,0,1,2.27,5c.38,1,.75,2,1.17,2.91.56,1.24,1.11,2.48,1.66,3.71,1.57,3.52,3.2,7.17,5.06,10.66l.11.21c1,1.92,2.19,3.78,3.31,5.59l.21.34c1.07-5.91,1.81-11.58,2.53-18.61a.83.83,0,0,1-.38-.34c-.43-.72-.87-1.43-1.31-2.13-.79-1.27-1.61-2.59-2.35-4-1.37-2.55-2.5-5.12-3.62-7.63-.38-.85-.76-1.7-1.15-2.55-.31-.69-.59-1.41-.85-2.11a18.76,18.76,0,0,0-1.44-3.23,1,1,0,0,1,.29-1.27.91.91,0,0,1,1.25.3,21.18,21.18,0,0,1,1.59,3.54c.27.7.52,1.36.8,2l1.16,2.57c1.15,2.6,2.25,5.06,3.56,7.5.71,1.33,1.51,2.62,2.29,3.86l.41.67c.82-11.44-1.18-24.66-1-27.11.06-.9-.22-2.54.64-3a2.87,2.87,0,0,0,.84.56c2.71,9.23,2.9,19.33,2.23,29.13,2.77-2.06,4.73-5.29,6.64-8.44a47.54,47.54,0,0,1,4-5.87.9.9,0,0,1,1.28-.1,1,1,0,0,1,.2.26.91.91,0,0,1-.11,1A45.42,45.42,0,0,0,176,59c-2.28,3.75-4.62,7.61-8.35,9.78-.22,2.66-.49,5.28-.78,7.86-.5,4.33-1,8.71-1.67,13.05,5.15-2.83,8.47-8.28,11.68-13.57a66.21,66.21,0,0,1,5.71-8.43.88.88,0,0,1,1.27-.1.75.75,0,0,1,.21.26,1,1,0,0,1-.11,1A65.32,65.32,0,0,0,178.41,77c-3.58,5.91-7.28,12-13.55,14.84-.29,1.83-.6,3.66-1,5.47-1,5.16-2.34,10.2-3.79,15.23,6.27-2.66,10.43-8.88,14.46-14.92a73.29,73.29,0,0,1,6.9-9.28.89.89,0,0,1,1.28,0,1.3,1.3,0,0,1,.18.23,1,1,0,0,1-.14,1.08,70.3,70.3,0,0,0-6.72,9c-4.46,6.68-9.07,13.56-16.59,16.09-.09.29-.17.58-.26.87-.8,2.71-1.85,6-3,9.16,2.64-1.73,4.77-4.43,6.86-7.06a46.21,46.21,0,0,1,4.66-5.32.89.89,0,0,1,1.28.06l.13.18a.93.93,0,0,1-.19,1.12,44.06,44.06,0,0,0-4.47,5.12c-2.68,3.38-5.43,6.85-9.3,8.56-.35.86-.7,1.69-1.05,2.45-1.11,2.37-1.87,3-3.19,5.29C149.88,137.1,148.9,139.67,146.72,140.45Z" transform="translate(-0.65 -1.24)"/><path class="cls-11" d="M104.15,42s71.3-4.34,59.89,82.87C164,124.87,76.24,125.81,104.15,42Z" transform="translate(-0.65 -1.24)"/><path class="cls-12" d="M164.19,124.42c-2.44-2.24-6.25-4.38-8.52-6.87l-1.26-1.39a.82.82,0,0,0,.2-.49c0-.76,0-1.51.08-2.27.06-1.35.12-2.76.08-4.18-.06-2.58-.34-5.15-.6-7.63l-.27-2.52c-.06-.68-.18-1.37-.3-2a16.49,16.49,0,0,1-.34-3.18.86.86,0,0,0-.87-.86.89.89,0,0,0-.94.8,17.76,17.76,0,0,0,.36,3.5c.12.67.23,1.3.29,1.93.08.85.17,1.69.26,2.53.28,2.57.54,5,.6,7.51,0,1.37,0,2.74-.08,4.08,0,.36,0,.73,0,1.09-2.91-3.19-5.8-6.42-8.26-9.26l.21-2.32c.23-2.32.47-4.72.56-7.13.14-4.44,0-8.87-.23-13.15-.06-1.45-.12-2.9-.17-4.36,0-1.16-.16-2.35-.28-3.5a28.78,28.78,0,0,1-.23-5.62.86.86,0,0,0-.83-.9.9.9,0,0,0-1,.76,31.68,31.68,0,0,0,.23,5.92c.12,1.12.24,2.29.28,3.39.05,1.47.11,2.93.17,4.38.18,4.25.37,8.65.22,13-.07,2.36-.31,4.73-.54,7,0,.18,0,.37-.05.56-.53-.62-1-1.21-1.48-1.76-4.12-5-7.31-9-10.14-12.87.13-.71.24-1.42.37-2.13.35-1.92.71-3.92.93-5.94.39-3.71.52-7.42.62-11,0-1.22.07-2.44.12-3.66,0-1,0-2,0-3a22.71,22.71,0,0,1,.14-4.68.85.85,0,0,0-.76-1,.9.9,0,0,0-1,.69,24.61,24.61,0,0,0-.16,5c0,1,.06,1.92,0,2.84-.05,1.23-.08,2.46-.12,3.68-.1,3.49-.2,7.1-.58,10.68l0,.21c-.21,2-.57,3.93-.91,5.83,0,.12,0,.24-.07.36-3.24-4.54-6.08-9-9.44-14.58a.8.8,0,0,0,.23-.42c.12-.75.25-1.5.39-2.24.24-1.34.49-2.72.65-4.13.29-2.61.35-5.15.43-7.64,0-.85,0-1.69.08-2.54,0-.68,0-1.38,0-2.06a15.92,15.92,0,0,1,.1-3.19.87.87,0,0,0-.76-1,.9.9,0,0,0-1,.7,17.19,17.19,0,0,0-.12,3.51c0,.68,0,1.32,0,1.94,0,.86-.06,1.71-.08,2.55-.08,2.58-.15,5-.43,7.52-.14,1.36-.39,2.71-.63,4l-.12.7c-5.13-9.23-8.33-20.94-9.4-22.93-.4-.73-.77-2.19-1.74-2.28a2.78,2.78,0,0,1-.56.77c1,8.64,4.7,17.11,9.07,25-3.34-.72-6.38-2.71-9.34-4.64a47.27,47.27,0,0,0-5.91-3.47,1,1,0,0,0-1.22.38.75.75,0,0,0-.09.29.83.83,0,0,0,.5.82,44.53,44.53,0,0,1,5.67,3.34c3.53,2.3,7.17,4.67,11.43,5.15,1.22,2.13,2.47,4.22,3.72,6.26,2.11,3.42,4.27,6.88,6.52,10.26-5.82-.51-11-3.86-15.94-7.12a67.78,67.78,0,0,0-8.48-5,1,1,0,0,0-1.21.38.75.75,0,0,0-.09.29.8.8,0,0,0,.49.82A65.34,65.34,0,0,1,110.77,83c5.55,3.64,11.28,7.38,18.15,7.51,1,1.42,2,2.83,3,4.21,2.89,3.93,6.05,7.65,9.31,11.32-6.79,0-13-3.67-19-7.26a74.87,74.87,0,0,0-9.9-5.25,1,1,0,0,0-1.2.43.78.78,0,0,0-.07.25.84.84,0,0,0,.54.85,71.87,71.87,0,0,1,9.65,5.12c6.66,4,13.54,8,21.43,7.46l.56.63c1.78,2,4,4.37,6.26,6.56a33.17,33.17,0,0,1-9-3.43,47.54,47.54,0,0,0-6.34-2.76.93.93,0,0,0-1.15.51.67.67,0,0,0-.05.19.83.83,0,0,0,.6.87,45,45,0,0,1,6.08,2.66c3.75,1.85,7.62,3.75,11.84,3.8.65.59,1.29,1.16,1.9,1.66a53,53,0,0,0,5,3.26C160,122.76,161.87,124.54,164.19,124.42Z" transform="translate(-0.65 -1.24)"/><path class="cls-4" d="M105.18,80.63s43.61,21.4,2.21,68.79C107.39,149.42,55.45,120.47,105.18,80.63Z" transform="translate(-0.65 -1.24)"/><path class="cls-5" d="M107.66,149.2c-.54-2.13-1.93-4.67-2.27-6.9-.07-.41-.13-.82-.19-1.23a.59.59,0,0,0,.31-.23c.31-.44.63-.87.95-1.3.58-.78,1.17-1.58,1.72-2.42,1-1.55,1.84-3.15,2.67-4.69.28-.52.56-1.05.85-1.57s.44-.87.64-1.3a11.58,11.58,0,0,1,1.06-2,.54.54,0,0,0-.17-.8.66.66,0,0,0-.87.16,12.71,12.71,0,0,0-1.18,2.17c-.2.43-.38.84-.6,1.23l-.85,1.58c-.86,1.6-1.67,3.11-2.63,4.61-.53.81-1.11,1.6-1.67,2.37-.16.2-.31.41-.47.63-.43-2.86-.84-5.73-1.16-8.22l1-1.29c1.06-1.29,2.15-2.61,3.16-4,1.85-2.55,3.5-5.21,5.1-7.79l1.63-2.62c.44-.69.84-1.43,1.23-2.15a21.52,21.52,0,0,1,2.1-3.38.55.55,0,0,0-.13-.81.68.68,0,0,0-.88.12,22.67,22.67,0,0,0-2.21,3.56c-.38.7-.78,1.42-1.19,2.08-.56.88-1.1,1.76-1.64,2.63-1.59,2.56-3.23,5.21-5,7.73-1,1.36-2.07,2.67-3.12,3.94l-.26.32c-.06-.54-.11-1.06-.16-1.54-.44-4.31-.71-7.75-.84-11l1.07-1.12c1-1,2-2.07,2.91-3.18,1.7-2,3.25-4.18,4.74-6.26.5-.7,1-1.41,1.53-2.11s.79-1.16,1.15-1.75a17.69,17.69,0,0,1,2-2.7.54.54,0,0,0-.07-.81.66.66,0,0,0-.88.06,18.15,18.15,0,0,0-2.08,2.88c-.38.59-.73,1.15-1.11,1.68-.52.7-1,1.41-1.54,2.12-1.44,2-2.94,4.1-4.59,6.07l-.1.12c-.9,1.08-1.9,2.12-2.85,3.12l-.18.19c-.1-3.76,0-7.33.25-11.74a.6.6,0,0,0,.3-.17c.37-.4.75-.79,1.12-1.18.68-.71,1.37-1.44,2-2.21,1.21-1.44,2.25-2.91,3.29-4.35l1-1.46c.29-.39.55-.81.81-1.22a11.11,11.11,0,0,1,1.33-1.84.56.56,0,0,0-.07-.81.66.66,0,0,0-.88.06,13,13,0,0,0-1.47,2c-.25.41-.49.79-.76,1.15l-1.06,1.47c-1.07,1.49-2.08,2.9-3.24,4.27-.62.75-1.31,1.46-2,2.16l-.36.37c.67-7.14,3.45-15.1,3.61-16.63.06-.56.42-1.54-.12-1.92a2,2,0,0,1-.63.26c-2.84,5.42-4,11.63-4.63,17.75a17.82,17.82,0,0,1-3.64-5.87,27.28,27.28,0,0,0-2.09-4,.67.67,0,0,0-.86-.19.61.61,0,0,0-.17.14.54.54,0,0,0,0,.65,27.51,27.51,0,0,1,2,3.87c1.15,2.54,2.35,5.15,4.66,6.86-.13,1.66-.23,3.31-.3,4.93-.13,2.72-.23,5.47-.26,8.22-3.21-2.26-4.9-6-6.53-9.54a40.31,40.31,0,0,0-3-5.77.65.65,0,0,0-.86-.19.79.79,0,0,0-.17.14.54.54,0,0,0,0,.65,38.82,38.82,0,0,1,2.91,5.61c1.81,4,3.69,8.13,7.67,10.51,0,1.16,0,2.31.07,3.47.13,3.28.51,6.52,1,9.77-4-2.27-6.17-6.52-8.28-10.65a44.77,44.77,0,0,0-3.73-6.41.65.65,0,0,0-.87-.15.42.42,0,0,0-.14.12.53.53,0,0,0,0,.68,43.27,43.27,0,0,1,3.62,6.25c2.34,4.56,4.75,9.27,9.62,11.58,0,.19.06.37.08.56.26,1.75.62,3.92,1.07,5.95a19.8,19.8,0,0,1-3.93-5,29.51,29.51,0,0,0-2.62-3.75.67.67,0,0,0-.88-.09l-.11.1a.55.55,0,0,0,0,.71,27.3,27.3,0,0,1,2.51,3.61c1.47,2.35,3,4.76,5.44,6.21.15.56.3,1.11.46,1.61a33.55,33.55,0,0,0,1.61,3.58C105.86,146.82,106.25,148.5,107.66,149.2Z" transform="translate(-0.65 -1.24)"/><path class="cls-6" d="M161,89.25s29.22,59.93-63.72,80.42C97.32,169.67,65.83,94.35,161,89.25Z" transform="translate(-0.65 -1.24)"/><path class="cls-7" d="M97.83,169.64c1.45-2.87,2.3-6.9,4-9.73.32-.52.65-1,1-1.57a.89.89,0,0,0,.58,0c.78-.25,1.56-.48,2.34-.71,1.4-.42,2.86-.86,4.29-1.38,2.62-1,5.14-2.09,7.58-3.18.82-.37,1.64-.74,2.48-1.1.67-.3,1.33-.64,2-1a18.17,18.17,0,0,1,3.12-1.4.82.82,0,0,0,.57-1.06.93.93,0,0,0-1.14-.52,21.75,21.75,0,0,0-3.44,1.52c-.64.34-1.25.65-1.87.92l-2.5,1.11c-2.52,1.13-4.9,2.2-7.45,3.13-1.38.51-2.8.93-4.18,1.35l-1.14.34c2.25-3.61,4.54-7.23,6.58-10.34l2.44-.62c2.45-.61,5-1.23,7.47-2,4.58-1.42,9-3.12,13.33-4.77l4.39-1.66c1.17-.44,2.34-1,3.48-1.46a37.05,37.05,0,0,1,5.65-2.16.81.81,0,0,0,.63-1,.93.93,0,0,0-1.11-.58,38.89,38.89,0,0,0-6,2.26c-1.11.49-2.25,1-3.37,1.42-1.48.55-2.94,1.11-4.4,1.67-4.28,1.63-8.7,3.32-13.22,4.72-2.44.75-4.94,1.37-7.36,2-.2,0-.39.1-.59.15.44-.67.88-1.31,1.28-1.9,3.66-5.27,6.67-9.43,9.6-13.2l2.3-.42c2.09-.37,4.25-.75,6.39-1.26,3.92-1,7.75-2.14,11.45-3.3,1.25-.39,2.51-.79,3.77-1.17,1-.31,2-.69,3-1.06a30.24,30.24,0,0,1,4.83-1.51.86.86,0,0,0,.71-1,.91.91,0,0,0-1.07-.65,31.48,31.48,0,0,0-5.16,1.6c-1,.37-1.93.73-2.89,1-1.27.38-2.53.78-3.79,1.17-3.6,1.13-7.32,2.3-11.1,3.21l-.22.06c-2.08.5-4.21.87-6.27,1.23l-.39.08c3.51-4.37,7.06-8.37,11.59-13.21a1,1,0,0,0,.51,0c.81-.16,1.62-.3,2.42-.44,1.45-.26,2.95-.53,4.44-.88,2.77-.66,5.38-1.49,7.95-2.29l2.61-.81c.71-.22,1.41-.48,2.1-.74a20,20,0,0,1,3.29-1,.85.85,0,0,0,.71-1,.91.91,0,0,0-1.07-.65,21.11,21.11,0,0,0-3.62,1.12c-.68.26-1.33.5-2,.7l-2.63.81c-2.65.84-5.17,1.63-7.81,2.26-1.44.34-2.91.6-4.33.85l-.77.14c7.64-7.62,18.48-14.46,20.13-16.08.61-.59,2-1.42,1.72-2.28a3.21,3.21,0,0,1-1-.22c-8.47,3.89-15.83,10-22.38,16.52-.42-3.13.54-6.44,1.49-9.67a39.2,39.2,0,0,0,1.48-6.29.86.86,0,0,0-.81-.92,1.13,1.13,0,0,0-.32,0,.86.86,0,0,0-.67.72,38,38,0,0,1-1.43,6c-1.13,3.85-2.28,7.8-1.28,11.65-1.75,1.78-3.45,3.59-5.09,5.38-2.77,3-5.53,6.07-8.21,9.18-1.5-5.19.13-10.78,1.72-16.21a55.9,55.9,0,0,0,2.13-9,.85.85,0,0,0-.8-.92,1.2,1.2,0,0,0-.33,0,.87.87,0,0,0-.67.72,55.66,55.66,0,0,1-2.07,8.78c-1.78,6-3.61,12.29-1.35,18.24-1.11,1.33-2.21,2.67-3.26,4-3,3.86-5.7,7.88-8.31,12-2.39-5.84-.78-12.47.78-18.91a61.65,61.65,0,0,0,1.92-10.36.87.87,0,0,0-.85-.88.7.7,0,0,0-.29,0,.84.84,0,0,0-.67.75,59.59,59.59,0,0,1-1.87,10.1c-1.73,7.11-3.5,14.46-.16,21.05l-.45.71c-1.39,2.22-3.06,5-4.51,7.68-.56-2.85-.1-5.94.36-9a39.5,39.5,0,0,0,.62-6.42.88.88,0,0,0-.93-.82.76.76,0,0,0-.21,0,.85.85,0,0,0-.68.82,38,38,0,0,1-.59,6.16c-.59,3.88-1.19,7.87.23,11.52-.37.76-.73,1.52-1,2.22-.94,2.2-.88,3.12-1.6,5.4C98.07,165.46,96.9,167.69,97.83,169.64Z" transform="translate(-0.65 -1.24)"/><path class="cls-10" d="M38.92,85.55s66.69-6.24,58.31,84.11C97.23,169.66,15,172.8,38.92,85.55Z" transform="translate(-0.65 -1.24)"/><path class="cls-5" d="M97.36,169.19c-2.34-2.26-6-4.37-8.17-6.89L88,160.9a.88.88,0,0,0,.18-.52c0-.78,0-1.56,0-2.33,0-1.41,0-2.86,0-4.33-.13-2.66-.45-5.31-.77-7.86-.1-.86-.21-1.73-.31-2.6-.08-.7-.21-1.41-.34-2.1a18.34,18.34,0,0,1-.4-3.28.86.86,0,0,0-.84-.86.87.87,0,0,0-.86.85,20.47,20.47,0,0,0,.43,3.6c.13.69.25,1.34.32,2,.1.88.21,1.74.32,2.61.32,2.64.63,5.14.76,7.74.07,1.41,0,2.83,0,4.21,0,.38,0,.76,0,1.14-2.81-3.24-5.6-6.5-8-9.37,0-.8.09-1.6.15-2.4.15-2.4.31-4.88.32-7.38,0-4.58-.27-9.15-.56-13.57-.09-1.49-.19-3-.27-4.5-.07-1.19-.22-2.42-.36-3.61a34.58,34.58,0,0,1-.37-5.8.86.86,0,0,0-.8-.91.88.88,0,0,0-.89.81,36.73,36.73,0,0,0,.37,6.11c.14,1.16.29,2.36.35,3.5.09,1.51.18,3,.28,4.51.28,4.39.57,8.93.55,13.45,0,2.45-.17,4.9-.32,7.28l0,.58c-.51-.62-1-1.22-1.44-1.79-4-5-7.09-9.13-9.83-13,.09-.74.19-1.47.29-2.21.27-2,.56-4.06.71-6.16.27-3.84.29-7.67.29-11.38,0-1.26,0-2.52,0-3.79,0-1,0-2-.11-3a27,27,0,0,1,0-4.84.88.88,0,0,0-.73-1,.85.85,0,0,0-1,.75,27.8,27.8,0,0,0,0,5.16c.06,1,.11,2,.1,2.94,0,1.27,0,2.53,0,3.79,0,3.62,0,7.35-.26,11,0,.07,0,.15,0,.22-.15,2-.43,4.07-.7,6,0,.13,0,.25,0,.38-3.16-4.61-5.94-9.13-9.23-14.82a.92.92,0,0,0,.2-.45c.09-.78.19-1.55.3-2.32.19-1.39.39-2.82.5-4.28.21-2.71.2-5.33.2-7.9,0-.87,0-1.75,0-2.62,0-.71,0-1.43-.08-2.13a18.17,18.17,0,0,1,0-3.3.86.86,0,0,0-.73-1,.85.85,0,0,0-1,.74,20,20,0,0,0,0,3.63c0,.7.07,1.36.07,2,0,.88,0,1.76,0,2.63,0,2.66,0,5.19-.19,7.78-.11,1.4-.3,2.81-.49,4.17,0,.25-.07.49-.1.74-5-9.41-8.36-21.43-9.41-23.46-.39-.74-.78-2.24-1.69-2.31a2.73,2.73,0,0,1-.51.81c1.19,8.9,4.87,17.56,9.17,25.62-3.15-.67-6-2.64-8.88-4.57a43.45,43.45,0,0,0-5.63-3.43.85.85,0,0,0-1.13.42.82.82,0,0,0-.07.3.85.85,0,0,0,.49.84,41.84,41.84,0,0,1,5.39,3.3c3.37,2.3,6.84,4.65,10.85,5,1.2,2.17,2.43,4.3,3.65,6.37,2.07,3.49,4.19,7,6.38,10.44-5.47-.39-10.37-3.72-15.12-7a61.11,61.11,0,0,0-8.08-4.93.84.84,0,0,0-1.12.42.79.79,0,0,0-.08.3.86.86,0,0,0,.49.84,60.4,60.4,0,0,1,7.84,4.8c5.3,3.61,10.77,7.34,17.2,7.3,1,1.44,1.91,2.87,2.89,4.27,2.82,4,5.88,7.75,9,11.46-6.36.19-12.27-3.47-18-7a67.21,67.21,0,0,0-9.42-5.18.84.84,0,0,0-1.1.47.65.65,0,0,0-.06.26.84.84,0,0,0,.52.86,66,66,0,0,1,9.18,5.06c6.34,3.93,12.89,8,20.27,7.17.19.21.37.43.55.64,1.71,2,3.88,4.42,6,6.61-2.91-.44-5.76-1.89-8.54-3.31a43.29,43.29,0,0,0-6-2.7.85.85,0,0,0-1.06.56.48.48,0,0,0,0,.2.85.85,0,0,0,.58.88A41.7,41.7,0,0,1,74,157.84c3.56,1.83,7.23,3.7,11.19,3.64.62.59,1.24,1.16,1.83,1.67a48.73,48.73,0,0,0,4.73,3.24C93.39,167.57,95.19,169.37,97.36,169.19Z" transform="translate(-0.65 -1.24)"/></g></g></g></svg>